<?xml version="1.0" encoding="UTF-8" standalone="no"?>
<!-- Created with Inkscape (http://www.inkscape.org/) -->

<svg
   xmlns:dc="http://purl.org/dc/elements/1.1/"
   xmlns:cc="http://creativecommons.org/ns#"
   xmlns:rdf="http://www.w3.org/1999/02/22-rdf-syntax-ns#"
   xmlns:svg="http://www.w3.org/2000/svg"
   xmlns="http://www.w3.org/2000/svg"
   xmlns:xlink="http://www.w3.org/1999/xlink"
   xmlns:sodipodi="http://sodipodi.sourceforge.net/DTD/sodipodi-0.dtd"
   xmlns:inkscape="http://www.inkscape.org/namespaces/inkscape"
   width="75.62619"
   height="69.154633"
   id="svg2"
   version="1.1"
   inkscape:version="0.48.4 r9939"
   sodipodi:docname="New document 1">
  <defs
     id="defs4">
    <linearGradient
       gradientUnits="userSpaceOnUse"
       y2="131.85291"
       x2="110.14919"
       y1="77.070274"
       x1="55.549179"
       id="linearGradient9521"
       xlink:href="#linearGradient9515"
       inkscape:collect="always" />
    <linearGradient
       id="linearGradient9515"
       inkscape:collect="always">
      <stop
         id="stop9517"
         offset="0"
         style="stop-color:#387eb8;stop-opacity:1" />
      <stop
         id="stop9519"
         offset="1"
         style="stop-color:#366994;stop-opacity:1" />
    </linearGradient>
    <linearGradient
       gradientUnits="userSpaceOnUse"
       y2="168.1012"
       x2="147.77737"
       y1="111.92053"
       x1="89.136749"
       id="linearGradient11307"
       xlink:href="#linearGradient11301"
       inkscape:collect="always" />
    <linearGradient
       id="linearGradient11301"
       inkscape:collect="always">
      <stop
         id="stop11303"
         offset="0"
         style="stop-color:#ffe052;stop-opacity:1" />
      <stop
         id="stop11305"
         offset="1"
         style="stop-color:#ffc331;stop-opacity:1" />
    </linearGradient>
    <linearGradient
       y2="168.1012"
       x2="147.77737"
       y1="111.92053"
       x1="89.136749"
       gradientUnits="userSpaceOnUse"
       id="linearGradient4043"
       xlink:href="#linearGradient11301"
       inkscape:collect="always" />
  </defs>
  <sodipodi:namedview
     id="base"
     pagecolor="#ffffff"
     bordercolor="#666666"
     borderopacity="1.0"
     inkscape:pageopacity="0.0"
     inkscape:pageshadow="2"
     inkscape:zoom="3.959798"
     inkscape:cx="2.2475683"
     inkscape:cy="5.2450672"
     inkscape:document-units="px"
     inkscape:current-layer="layer1"
     showgrid="false"
     fit-margin-top="0"
     fit-margin-left="0"
     fit-margin-right="0"
     fit-margin-bottom="0"
     showborder="false"
     inkscape:window-width="1678"
     inkscape:window-height="1032"
     inkscape:window-x="1600"
     inkscape:window-y="16"
     inkscape:window-maximized="0">
    <inkscape:grid
       type="xygrid"
       id="grid3829"
       empspacing="5"
       visible="true"
       enabled="true"
       snapvisiblegridlinesonly="true"
       originx="3.6988469px"
       originy="-784.37741px" />
  </sodipodi:namedview>
  <metadata
     id="metadata7">
    <rdf:RDF>
      <cc:Work
         rdf:about="">
        <dc:format>image/svg+xml</dc:format>
        <dc:type
           rdf:resource="http://purl.org/dc/dcmitype/StillImage" />
        <dc:title></dc:title>
      </cc:Work>
    </rdf:RDF>
  </metadata>
  <g
     inkscape:label="Layer 1"
     inkscape:groupmode="layer"
     id="layer1"
     transform="translate(3.6988469,-198.83014)">
    <g
       id="g1894"
       transform="matrix(0.23206771,0,0,0.23206771,10.110985,222.09936)">
      <path
         inkscape:connector-curvature="0"
         style="color:#000000;fill:url(#linearGradient9521);fill-opacity:1;fill-rule:nonzero;stroke:none;stroke-width:1;marker:none;visibility:visible;display:inline;overflow:visible"
         d="M 99.75,67.46875 C 71.718268,67.468752 73.46875,79.625 73.46875,79.625 L 73.5,92.21875 l 26.75,0 0,3.78125 -37.375,0 c 0,0 -17.9375,-2.034276 -17.9375,26.25 -2e-6,28.28427 15.65625,27.28125 15.65625,27.28125 l 9.34375,0 0,-13.125 c 0,0 -0.503652,-15.65625 15.40625,-15.65625 15.9099,0 26.53125,0 26.53125,0 0,0 14.90625,0.24096 14.90625,-14.40625 0,-14.647206 0,-24.21875 0,-24.21875 0,-2e-6 2.26318,-14.65625 -27.03125,-14.65625 z M 85,75.9375 c 2.661429,-2e-6 4.8125,2.151071 4.8125,4.8125 2e-6,2.661429 -2.151071,4.8125 -4.8125,4.8125 -2.661429,2e-6 -4.8125,-2.151071 -4.8125,-4.8125 -2e-6,-2.661429 2.151071,-4.8125 4.8125,-4.8125 z"
         id="path8615" />
      <path
         inkscape:connector-curvature="0"
         id="path8620"
         d="m 100.5461,177.31485 c 28.03174,0 26.28125,-12.15625 26.28125,-12.15625 l -0.0312,-12.59375 -26.75,0 0,-3.78125 37.375,0 c 0,0 17.9375,2.03427 17.9375,-26.25001 10e-6,-28.284267 -15.65625,-27.281247 -15.65625,-27.281247 l -9.34375,0 0,13.124997 c 0,0 0.50366,15.65625 -15.40625,15.65625 -15.909902,0 -26.531252,0 -26.531252,0 0,0 -14.90625,-0.24096 -14.90625,14.40626 0,14.6472 0,24.21875 0,24.21875 0,0 -2.26318,14.65625 27.031252,14.65625 z m 14.75,-8.46875 c -2.66143,0 -4.8125,-2.15107 -4.8125,-4.8125 0,-2.66143 2.15107,-4.8125 4.8125,-4.8125 2.66143,0 4.8125,2.15107 4.8125,4.8125 1e-5,2.66143 -2.15107,4.8125 -4.8125,4.8125 z"
         style="color:#000000;fill:url(#linearGradient4043);fill-opacity:1;fill-rule:nonzero;stroke:none;stroke-width:1;marker:none;visibility:visible;display:inline;overflow:visible" />
    </g>
    <path
       style="fill:#3773a5;fill-opacity:1"
       d="m -3.6319997,223.43086 c 0,-28.92496 -2.4329688,-27.1804 22.0568377,-15.81594 l 15.906661,7.38146 17.297407,-8.08311 c 9.513576,-4.44572 17.972642,-8.08313 18.797925,-8.08313 0.825284,0 1.500516,11.07032 1.500516,24.60072 0,13.53039 -0.675232,24.60072 -1.500516,24.60072 -0.825283,0 -9.284349,-3.63741 -18.797925,-8.08314 l -17.297407,-8.0831 -15.906661,7.38147 C -6.0649685,250.61126 -3.6319997,252.35582 -3.6319997,223.43086 z m 32.1665537,6.99874 c 0.778612,-0.67089 -1.000547,-2.22063 -3.953686,-3.44387 -2.953139,-1.22321 -5.369344,-2.82291 -5.369344,-3.55487 0,-0.73196 2.416205,-2.33165 5.369344,-3.5549 6.462725,-2.67693 6.16427,-2.97351 -11.080225,-11.01094 l -13.61825462,-6.34726 0,20.9131 0,20.9131 13.61825462,-6.34726 c 7.49004,-3.491 14.255301,-6.8962 15.033911,-7.5671 z m 39.522954,-17.21183 -0.523147,-10.2131 -14.90386,6.96397 -14.903863,6.96396 5.678593,2.68933 c 3.123227,1.47914 5.678593,3.19316 5.678593,3.80893 0,0.61578 -2.555366,2.3298 -5.678593,3.80893 l -5.678593,2.68934 14.903863,6.96394 14.90386,6.96397 0.523147,-10.21308 c 0.287732,-5.61721 0.287732,-14.80898 0,-20.42619 z m -26.00246,10.19956 c 0,-0.66364 -1.77916,-2.00582 -3.953687,-2.98261 -3.90405,-1.7537 -11.861061,0.26533 -11.861061,3.00967 0,0.66364 1.779159,2.00582 3.953687,2.98261 3.90405,1.7537 11.861061,-0.26534 11.861061,-3.00967 z"
       id="path3896"
       inkscape:connector-curvature="0" />
    <text
       xml:space="preserve"
       style="font-size:36.79212189px;font-style:normal;font-variant:normal;font-weight:normal;font-stretch:normal;line-height:125%;letter-spacing:0px;word-spacing:0px;fill:#ffd444;fill-opacity:1;stroke:none;font-family:Sans;-inkscape-font-specification:ProFont"
       x="3.982939"
       y="261.9845"
       id="text5530"
       sodipodi:linespacing="125%"><tspan
         sodipodi:role="line"
         id="tspan5532"
         x="3.982939"
         y="261.9845">{ }</tspan></text>
  </g>
</svg>
